<?xml version="1.0" encoding="UTF-8" standalone="no"?>
<!-- Created with Inkscape (http://www.inkscape.org/) -->

<svg
   xmlns:dc="http://purl.org/dc/elements/1.1/"
   xmlns:cc="http://creativecommons.org/ns#"
   xmlns:rdf="http://www.w3.org/1999/02/22-rdf-syntax-ns#"
   xmlns:svg="http://www.w3.org/2000/svg"
   xmlns="http://www.w3.org/2000/svg"
   xmlns:sodipodi="http://sodipodi.sourceforge.net/DTD/sodipodi-0.dtd"
   xmlns:inkscape="http://www.inkscape.org/namespaces/inkscape"
   width="286.47842"
   height="38.097038"
   id="svg2"
   version="1.1"
   inkscape:version="0.47 r22583"
   sodipodi:docname="logo.svg">
  <defs
     id="defs4">
    <inkscape:perspective
       sodipodi:type="inkscape:persp3d"
       inkscape:vp_x="0 : 526.18109 : 1"
       inkscape:vp_y="0 : 1000 : 0"
       inkscape:vp_z="744.09448 : 526.18109 : 1"
       inkscape:persp3d-origin="372.04724 : 350.78739 : 1"
       id="perspective26" />
  </defs>
  <sodipodi:namedview
     id="base"
     pagecolor="#ffffff"
     bordercolor="#666666"
     borderopacity="1.0"
     inkscape:pageopacity="0.0"
     inkscape:pageshadow="2"
     inkscape:zoom="1.33"
     inkscape:cx="256.93452"
     inkscape:cy="-125.79709"
     inkscape:document-units="px"
     inkscape:current-layer="layer1"
     showgrid="false"
     inkscape:window-width="1280"
     inkscape:window-height="936"
     inkscape:window-x="-4"
     inkscape:window-y="65"
     inkscape:window-maximized="1" />
  <metadata
     id="metadata7">
    <rdf:RDF>
      <cc:Work
         rdf:about="">
        <dc:format>image/svg+xml</dc:format>
        <dc:type
           rdf:resource="http://purl.org/dc/dcmitype/StillImage" />
        <dc:title />
      </cc:Work>
    </rdf:RDF>
  </metadata>
  <g
     inkscape:label="Layer 1"
     inkscape:groupmode="layer"
     id="layer1"
     transform="translate(-366.10409,-198.30955)">
    <g
       id="g2864">
      <g
         id="flowRoot2830"
         style="font-size:40px;font-style:normal;font-weight:normal;fill:#ffffff;fill-opacity:1;stroke:none;font-family:Bitstream Vera Sans"
         transform="matrix(1.0076892,0,0,1,125.93876,-41.552629)">
        <path
           id="path2851"
           style="font-variant:normal;font-stretch:normal;fill:#ffffff;font-family:Franklin Gothic Heavy;-inkscape-font-specification:'Franklin Gothic Heavy,'"
           d="m 278.82422,270.13047 0,-26.66015 13.53515,0 c 2.81249,2e-5 4.86327,0.70966 6.15235,2.1289 1.28904,1.4193 1.93357,3.04039 1.93359,4.86329 -2e-5,1.32814 -0.37437,2.52931 -1.12304,3.60351 -0.74872,1.07424 -1.86526,1.81317 -3.34961,2.2168 3.45049,0.83334 5.17575,2.90365 5.17578,6.21094 -3e-5,1.97917 -0.60875,3.74674 -1.82617,5.30273 -1.21747,1.55599 -3.81838,2.33398 -7.80274,2.33398 z m 7.53906,-16.44531 3.78906,0 c 0.95051,2e-5 1.62108,-0.24087 2.01172,-0.72265 0.39061,-0.48176 0.58592,-0.99608 0.58594,-1.54297 -2e-5,-1.48436 -0.91147,-2.22654 -2.73438,-2.22657 l -3.65234,0 z m 0,10.50781 3.98438,0 c 0.98956,10e-6 1.71548,-0.24413 2.17773,-0.73242 0.46222,-0.48827 0.69334,-1.0384 0.69336,-1.65039 -2e-5,-0.61197 -0.22463,-1.17512 -0.67383,-1.68945 -0.44923,-0.51431 -1.2728,-0.77147 -2.4707,-0.77149 l -3.71094,0 z" />
        <path
           id="path2853"
           style="font-variant:normal;font-stretch:normal;fill:#ffffff;font-family:Franklin Gothic Heavy;-inkscape-font-specification:'Franklin Gothic Heavy,'"
           d="m 323.57031,250.26719 0,19.86328 -7.20703,0 0,-3.26171 c -1.0547,2.44791 -3.11199,3.67187 -6.17187,3.67187 -1.88803,0 -3.34962,-0.52409 -4.38477,-1.57226 -1.03516,-1.04818 -1.55274,-2.54883 -1.55273,-4.50196 l 0,-14.19922 7.79296,0 0,12.5 c 0,0.78126 0.10742,1.33139 0.32227,1.65039 0.21483,0.31902 0.63476,0.47852 1.25977,0.47852 0.66405,0 1.20441,-0.23763 1.62109,-0.71289 0.41665,-0.47526 0.62499,-1.14257 0.625,-2.00195 l 0,-11.91407 z" />
        <path
           id="path2855"
           style="font-variant:normal;font-stretch:normal;fill:#ffffff;font-family:Franklin Gothic Heavy;-inkscape-font-specification:'Franklin Gothic Heavy,'"
           d="m 335.15234,270.13047 -7.46093,0 0,-19.86328 6.48437,0 0,4.10157 c 0.74218,-2.98176 2.46744,-4.47264 5.17578,-4.47266 0.27343,2e-5 0.65103,0.0261 1.13281,0.0781 l 0,6.9336 c -0.54688,-0.1302 -1.03517,-0.1953 -1.46484,-0.19531 -2.57813,10e-6 -3.8672,1.43881 -3.86719,4.3164 z" />
        <path
           id="path2857"
           style="font-variant:normal;font-stretch:normal;fill:#ffffff;font-family:Franklin Gothic Heavy;-inkscape-font-specification:'Franklin Gothic Heavy,'"
           d="m 341.16797,264.50547 6.15234,-0.83984 c 0.35156,1.4323 1.74479,2.14844 4.17969,2.14844 2.01822,0 3.02733,-0.39062 3.02734,-1.17188 -10e-6,-0.33853 -0.19532,-0.6022 -0.58593,-0.79101 -0.39064,-0.1888 -1.31512,-0.38086 -2.77344,-0.57617 -4.03647,-0.55989 -6.55599,-1.43554 -7.5586,-2.62696 -1.0026,-1.19139 -1.5039,-2.51626 -1.5039,-3.97461 0,-2.03123 0.84635,-3.67511 2.53906,-4.93164 1.6927,-1.25649 3.91275,-1.88474 6.66016,-1.88476 4.81769,2e-5 7.8906,1.7383 9.21875,5.21484 l -5.89844,1.11328 c -0.54689,-1.17186 -1.69923,-1.75779 -3.45703,-1.75781 -0.83334,2e-5 -1.45509,0.11395 -1.86524,0.3418 -0.41016,0.22788 -0.61524,0.45249 -0.61523,0.67382 -10e-6,0.65106 0.62499,1.0482 1.875,1.19141 3.2552,0.3646 5.46222,0.73569 6.62109,1.11328 1.15884,0.37762 2.14842,1.06772 2.96875,2.07031 0.8203,1.00262 1.23045,2.21355 1.23047,3.63282 -2e-5,2.17448 -0.90822,3.89974 -2.72461,5.17578 -1.81642,1.27604 -4.31967,1.91406 -7.50976,1.91406 -5.37761,0 -8.70443,-2.01172 -9.98047,-6.03516 z" />
        <path
           id="path2859"
           style="font-variant:normal;font-stretch:normal;fill:#ffffff;font-family:Franklin Gothic Heavy;-inkscape-font-specification:'Franklin Gothic Heavy,'"
           d="m 376.36328,250.26719 0,5.0586 -3.96484,0 0,7.32422 c -10e-6,1.00261 0.18879,1.59831 0.5664,1.78711 0.3776,0.1888 0.76822,0.2832 1.17188,0.2832 0.62499,0 1.36717,-0.11067 2.22656,-0.33203 l 0,5.54687 c -1.53647,0.29948 -3.04689,0.44922 -4.53125,0.44922 -2.39584,0 -4.15691,-0.51432 -5.2832,-1.54297 -1.12631,-1.02864 -1.68946,-2.66926 -1.68946,-4.92187 l 0.0195,-2.32422 0,-6.26953 -2.96875,0 0,-5.0586 2.96875,0 0.11718,-6.46484 7.40235,-0.11719 0,6.58203 z" />
      </g>
      <g
         id="flowRoot3610"
         style="font-size:40px;font-style:normal;font-weight:normal;fill:#ffffff;fill-opacity:1;stroke:none;font-family:Bitstream Vera Sans"
         transform="matrix(1.3215117,0,0,1.4182076,8.20887,-133.35247)">
        <path
           sodipodi:nodetypes="cccccccccsccccccccccc"
           id="path3646"
           style="font-size:26.01988029000000000px;font-variant:normal;font-stretch:normal;fill:#ffffff;font-family:Verdana;-inkscape-font-specification:Verdana"
           d="m 401.22962,255.34857 -4.98499,0 -3.39333,-7.52137 -2.83655,0 0,7.52137 -3.72957,0 0,-18.91777 5.80382,0 c 1.81994,0.0499 3.49947,-0.19242 5.42266,0.7336 0.68606,0.43199 1.22179,0.97619 1.60718,1.63259 0.38538,0.65645 0.7804,1.77142 0.78041,2.77934 -0.26922,1.73793 -0.24097,2.18743 -2.64835,5.50127 l 3.97872,8.27097 z m -5.57894,-13.68864 c 0.0154,-1.64362 -0.0817,-2.04259 -1.61781,-2.64037 -0.49974,-0.0974 -1.08841,-0.14609 -1.766,-0.14611 l -2.25212,0 0.10116,5.72622 1.83285,0 c 0.79617,1e-5 1.49071,-0.0699 2.08362,-0.20963 2.04545,-0.58876 1.53633,-1.24155 1.6183,-2.73011 z" />
        <path
           sodipodi:nodetypes="ccssssscccssssssscccssscc"
           id="path3648"
           style="font-size:26.01988029000000000px;font-variant:normal;font-stretch:normal;fill:#ffffff;font-family:Verdana;-inkscape-font-specification:Verdana"
           d="m 414.95294,248.6891 -10.45623,0 c -1e-5,0.87241 0.13128,0.7842 0.39385,1.43215 0.26257,0.64796 0.62255,1.17945 1.07993,1.59448 0.44044,0.40656 0.96346,0.71148 1.56907,0.91476 0.6056,0.20328 1.27261,0.30492 2.00104,0.30492 0.96557,0 1.93751,-0.19269 2.9158,-0.57808 0.97828,-0.38538 1.67493,-0.76441 2.08998,-1.1371 l 0.12705,0 0,2.60453 c -0.80467,0.3388 -1.62626,0.62255 -2.46477,0.85124 -0.83855,0.22869 -1.71943,0.34303 -2.64265,0.34303 -2.35467,0 -4.19266,-0.63737 -5.51398,-1.9121 -1.32132,-1.27474 -1.98198,-2.2368 -1.98198,-4.583 0,-2.32077 0.63313,-4.163 1.8994,-5.52668 1.26626,-1.36366 2.93274,-2.0455 4.99943,-2.04551 1.91421,1e-5 3.39011,0.55903 4.42769,1.67706 1.03757,1.11806 1.55636,2.70618 1.55637,4.76438 l 0,1.29592 z m -2.32502,-1.82953 c -0.008,-1.25355 -0.32399,-2.22336 -0.94652,-2.90945 -0.62256,-0.68605 -1.56908,-1.02909 -2.83957,-1.0291 -1.27898,1e-5 -2.2975,0.37693 -3.05556,1.13074 -0.75807,0.75385 -1.18793,1.68978 -1.28956,2.80781 l 8.13121,0 z" />
        <path
           sodipodi:nodetypes="cccsssssssssccssssscccsssssccccsssssssc"
           id="path3650"
           style="font-size:26.01988029000000000px;font-variant:normal;font-stretch:normal;fill:#ffffff;font-family:Verdana;-inkscape-font-specification:Verdana"
           d="m 429.50067,255.34857 -2.37584,0 0,-1.51189 c -0.21176,0.14399 -0.49763,0.34515 -0.85759,0.60348 -0.35999,0.25834 -0.70937,0.46374 -1.04816,0.6162 -0.3981,0.19481 -0.85548,0.35786 -1.37215,0.48914 -0.51667,0.13129 -1.12228,0.19693 -1.81681,0.19693 -1.27898,0 -2.36314,-0.4235 -3.25249,-1.2705 -0.88935,-0.847 -1.33403,-1.92693 -1.33403,-3.23978 0,-1.07569 0.23081,-1.94598 0.69243,-2.61089 0.46161,-0.66488 1.12015,-1.18791 1.97563,-1.56907 0.86393,-0.38114 1.90151,-0.63947 3.11273,-0.775 1.2112,-0.13551 2.51135,-0.23715 3.90044,-0.30492 l 0,-0.36845 c -10e-6,-0.54207 -0.0953,-0.99098 -0.28586,-1.34673 -0.19059,-0.35573 -0.46375,-0.63524 -0.81948,-0.83853 -0.33881,-0.1948 -0.74537,-0.32608 -1.21968,-0.39386 -0.47433,-0.0677 -0.96982,-0.10162 -1.48649,-0.10164 -0.62678,2e-5 -1.32556,0.0826 -2.09633,0.24775 -0.77077,0.16518 -1.56695,0.40446 -2.38854,0.71783 l -0.12705,0 0,-2.42665 c 0.46585,-0.12704 1.13921,-0.2668 2.0201,-0.41927 0.88087,-0.15245 1.74905,-0.22868 2.60453,-0.22869 0.99945,1e-5 1.86974,0.0826 2.61088,0.24775 0.74111,0.16518 1.38272,0.4468 1.92481,0.84488 0.5336,0.38964 0.94016,0.8936 1.21968,1.5119 0.2795,0.61832 0.41925,1.38486 0.41927,2.29961 l 0,9.6304 z m -2.37584,-3.49388 0,-3.95126 c -0.72843,0.0424 -1.58602,0.10588 -2.57277,0.19058 -0.98676,0.0847 -1.76812,0.20752 -2.34407,0.36844 -0.68608,0.19482 -1.24087,0.49762 -1.66436,0.90841 -0.42351,0.4108 -0.63526,0.97617 -0.63525,1.69612 -1e-5,0.81313 0.24562,1.42508 0.73689,1.83588 0.49125,0.41079 1.24085,0.61619 2.24879,0.61619 0.83852,0 1.60506,-0.16305 2.29961,-0.48914 0.69453,-0.3261 1.33825,-0.71783 1.93116,-1.17522 z" />
        <path
           sodipodi:nodetypes="cccsssssssssccccccsssssssc"
           id="path3652"
           style="font-size:26.01988029000000000px;font-variant:normal;font-stretch:normal;fill:#ffffff;font-family:Verdana;-inkscape-font-specification:Verdana"
           d="m 446.74885,255.16004 -3.50135,0.18853 0,-1.48648 c -0.68608,0.5929 -1.4018,1.05451 -2.14715,1.38484 -0.74537,0.33033 -1.55426,0.4955 -2.42666,0.4955 -1.69401,0 -3.03862,-0.65219 -4.03384,-1.95657 -0.99523,-1.30438 -1.49284,-3.11273 -1.49284,-5.42505 0,-1.20273 0.17151,-2.27419 0.51455,-3.21437 0.34303,-0.94016 0.80677,-1.74057 1.3912,-2.40125 0.57596,-0.6437 1.24721,-1.13496 2.01375,-1.47378 0.76653,-0.33879 1.56059,-0.50819 2.38219,-0.5082 0.74535,1e-5 1.40601,0.0784 1.98198,0.23504 0.57595,0.15671 1.18156,0.40022 1.81682,0.73054 l 0,-6.14923 3.50135,-0.18853 0,19.76901 z m -3.50135,-3.30535 0,-8.14392 c -0.64373,-0.28796 -1.21969,-0.48701 -1.72788,-0.59713 -0.50821,-0.1101 -1.063,-0.16515 -1.66436,-0.16517 -1.33827,2e-5 -2.38008,0.46587 -3.12544,1.39756 -0.74536,0.93171 -1.11804,2.25303 -1.11804,3.96396 0,1.68554 0.28798,2.96663 0.86394,3.84327 0.57596,0.87665 1.49919,1.31497 2.7697,1.31497 0.67759,0 1.36366,-0.15034 2.05821,-0.45103 0.69453,-0.30068 1.34249,-0.68818 1.94387,-1.16251 z" />
        <path
           sodipodi:nodetypes="cccccccccc"
           id="path3654"
           style="font-size:26.01988029000000000px;font-variant:normal;font-stretch:normal;fill:#ffffff;font-family:Verdana;-inkscape-font-specification:Verdana"
           d="m 454.01612,238.78123 -3.90744,0 0,-3.23161 3.90744,0 0,3.23161 z m -0.15246,16.56734 -3.60252,0 0,-14.1915 3.60252,0 0,14.1915 z" />
        <path
           sodipodi:nodetypes="cccsssssccccccssscc"
           id="path3656"
           style="font-size:26.01988029000000000px;font-variant:normal;font-stretch:normal;fill:#ffffff;font-family:Verdana;-inkscape-font-specification:Verdana"
           d="m 470.48182,255.34857 -2.38854,0 0,-8.08039 c -10e-6,-0.65218 -0.0381,-1.26414 -0.11435,-1.83588 -0.0762,-0.57171 -0.21599,-1.0185 -0.41926,-1.34037 -0.21176,-0.35573 -0.51668,-0.62042 -0.91476,-0.79407 -0.3981,-0.17362 -0.91477,-0.26044 -1.55002,-0.26045 -0.6522,1e-5 -1.33403,0.16094 -2.0455,0.48279 -0.71149,0.32187 -1.39333,0.73267 -2.04551,1.23239 l 0,10.59598 -3.0967,0 0,-14.1915 3.0967,0 0,1.57542 c 0.74535,-0.6183 1.51612,-1.10109 2.31231,-1.44837 0.79617,-0.34726 1.61353,-0.5209 2.45207,-0.52091 1.53306,1e-5 2.70192,0.46163 3.50658,1.38485 0.80464,0.92324 1.20697,2.25303 1.20698,3.98937 l 0,9.21114 z" />
        <path
           sodipodi:nodetypes="cssscccsssssccssssssssscccccccssscc"
           id="path3658"
           style="font-size:26.01988029000000000px;font-variant:normal;font-stretch:normal;fill:#ffffff;font-family:Verdana;-inkscape-font-specification:Verdana"
           d="m 487.60344,253.73504 c -2e-5,2.40548 -0.95099,4.17147 -2.04361,5.29799 -1.09264,1.12651 -2.77394,1.68976 -5.04389,1.68977 -0.75384,-1e-5 -1.48861,-0.053 -2.20432,-0.15882 -0.71572,-0.10588 -1.42085,-0.25622 -2.11539,-0.45103 l 0,-2.43936 0.12705,0 c 0.38962,0.15246 1.00793,0.34092 1.85493,0.56537 0.847,0.22446 1.694,0.33668 2.54101,0.33669 0.81311,-10e-6 1.48648,-0.0974 2.0201,-0.29222 0.5336,-0.19481 0.94863,-0.46585 1.24509,-0.81312 0.29644,-0.33033 0.50819,-0.72842 0.63525,-1.19427 0.12704,-0.46585 0.19056,-0.98676 0.19057,-1.56272 l 0,-1.29591 c -0.71996,0.57596 -1.40815,1.00581 -2.06456,1.28956 -0.65644,0.28374 -1.49285,0.42562 -2.50924,0.42562 -1.69401,0 -4.05026,-0.61196 -5.04549,-1.83588 -0.99523,-1.22391 -1.18935,-2.94968 -1.18935,-5.17729 0,-1.21968 0.17152,-2.27208 0.51456,-3.1572 0.34303,-0.88511 0.811,-1.64952 1.4039,-2.29326 0.55055,-0.60135 1.01735,-1.06932 1.80506,-1.4039 0.78771,-0.33455 2.48166,-0.50184 3.26091,-0.50185 0.82159,1e-5 1.50977,0.0826 2.06457,0.24775 0.55477,0.16518 1.14132,0.41716 1.75964,0.75595 l 0.15246,-0.60984 2.64075,0 0,12.57797 z m -3.80485,-3.60664 0.20233,-4.43803 c -0.88831,-1.89227 -1.1752,-2.08377 -3.30378,-2.30868 -1.31286,1e-5 -1.63805,-0.0309 -2.39188,0.84999 -0.75383,0.88089 -1.13075,2.15986 -1.13074,3.83692 -10e-6,1.59236 0.2795,2.51654 0.83853,3.33813 0.55901,0.82159 1.48648,1.13812 2.7824,1.13811 1.83412,-0.47555 2.61061,-0.75173 3.00314,-2.41644 z" />
      </g>
      <g
         id="flowRoot3618"
         style="font-size:40px;font-style:normal;font-weight:normal;fill:#ffffff;fill-opacity:1;stroke:none;font-family:Bitstream Vera Sans"
         transform="matrix(0.77380163,0,0,0.77380163,237.23821,-8.248172)">
        <path
           id="path2862"
           style="font-size:12px;fill:#ffffff"
           d="m 349.94141,269.91555 c 0.74218,1e-5 1.46679,0.19044 2.17382,0.57129 0.70703,0.38087 1.25781,0.92579 1.65235,1.63477 0.39452,0.70899 0.59179,1.44825 0.59179,2.21777 0,0.76172 -0.19434,1.49415 -0.583,2.19727 -0.38868,0.70312 -0.9336,1.24902 -1.63477,1.63769 -0.70118,0.38867 -1.43457,0.58301 -2.20019,0.58301 -0.76563,0 -1.49903,-0.19434 -2.2002,-0.58301 -0.70117,-0.38867 -1.24707,-0.93457 -1.63769,-1.63769 -0.39063,-0.70312 -0.58594,-1.43555 -0.58594,-2.19727 0,-0.76952 0.19824,-1.50878 0.59472,-2.21777 0.39649,-0.70898 0.94825,-1.2539 1.65528,-1.63477 0.70703,-0.38085 1.43164,-0.57128 2.17383,-0.57129 z m 0,0.73243 c -0.6211,0 -1.22559,0.15918 -1.81348,0.47753 -0.58789,0.31837 -1.04785,0.77345 -1.37988,1.36524 -0.33204,0.5918 -0.49805,1.20801 -0.49805,1.84863 0,0.63672 0.16309,1.24708 0.48926,1.83106 0.32617,0.58398 0.78222,1.03906 1.36816,1.36523 0.58594,0.32617 1.19726,0.48926 1.83399,0.48926 0.63671,0 1.24804,-0.16309 1.83398,-0.48926 0.58593,-0.32617 1.04101,-0.78125 1.36523,-1.36523 0.32422,-0.58398 0.48632,-1.19434 0.48633,-1.83106 -1e-5,-0.64062 -0.16504,-1.25683 -0.49511,-1.84863 -0.33009,-0.59179 -0.79005,-1.04687 -1.37989,-1.36524 -0.58985,-0.31835 -1.19336,-0.47753 -1.81054,-0.47753 z m -1.93946,6.13476 0,-4.75781 1.63477,0 c 0.55859,1e-5 0.96288,0.0439 1.21289,0.13183 0.24999,0.0879 0.44921,0.24122 0.59766,0.45997 0.14843,0.21875 0.22265,0.45117 0.22265,0.69726 0,0.34766 -0.12403,0.6504 -0.37207,0.9082 -0.24805,0.25782 -0.57715,0.40235 -0.9873,0.4336 0.16796,0.0703 0.30273,0.1543 0.40429,0.25195 0.1914,0.1875 0.42578,0.50196 0.70313,0.94336 l 0.58008,0.93164 -0.9375,0 -0.42188,-0.75 c -0.33203,-0.58984 -0.59961,-0.95898 -0.80273,-1.10742 -0.14063,-0.10937 -0.34571,-0.16406 -0.61524,-0.16406 l -0.45117,0 0,2.02148 z m 0.76758,-2.67773 0.93164,0 c 0.44531,0 0.74902,-0.0664 0.91113,-0.19922 0.16211,-0.13281 0.24316,-0.30859 0.24317,-0.52735 -1e-5,-0.14062 -0.0391,-0.26659 -0.11719,-0.37793 -0.0781,-0.11132 -0.18653,-0.19433 -0.32519,-0.24902 -0.13868,-0.0547 -0.39552,-0.082 -0.77051,-0.082 l -0.87305,0 z" />
      </g>
      <path
         sodipodi:nodetypes="ccccccsssccccc"
         id="path3626"
         d="m 381.93163,198.30955 c -3.0869,11.16845 5.20038,9.33767 6.55214,9.25 0,-2.15108 -0.2247,-3.8576 -0.13369,-8.20321 5.1806,5.1806 16.13369,16.0869 16.13369,16.0869 0,0 -17.75,13.59893 -17.75,13.59893 0,0 -3.62215,-0.17709 1.11631,-7.51738 -12.25468,-0.961 -19.71985,8.62613 -19.66845,8.26738 0.35278,-2.46211 3.49317,-6.34703 4.65107,-7.23262 1.28476,-0.98262 8.69096,-5.27751 18.25,-4.61631 0.67647,0.0468 0.25,3.36631 0.25,3.36631 l 8.25,-6 -7.5,-7.75 0.0348,3.48262 c 0,0 -19.94118,1.56417 -10.18583,-12.73262 z"
         style="fill:#ffffff;stroke:none" />
      <path
         sodipodi:nodetypes="csc"
         id="path3628"
         d="m 366.10409,214.33094 c 2.40641,-1.33689 23.45138,-1.35656 25,0.13369 1.31025,1.26086 -19.7861,1.06952 -25,-0.13369 z"
         style="fill:#ffffff;stroke:none" />
    </g>
  </g>
</svg>
